<svg version="1.1" id="Layer_1" xmlns="http://www.w3.org/2000/svg" xmlns:xlink="http://www.w3.org/1999/xlink" x="0px" y="0px"
	 width="100%" viewBox="0 0 544 544" enable-background="new 0 0 544 544" xml:space="preserve">
<path fill="#000000" opacity="1.000000" stroke="none" 
	d="
M290.482025,90.517227 
	C292.347168,86.010590 294.164795,81.893906 295.757294,77.691895 
	C296.797394,74.947456 298.211761,73.878029 301.390961,74.408737 
	C319.437744,77.421310 319.753052,77.519157 326.708130,94.280594 
	C332.387451,107.967567 337.905823,121.721283 343.561035,135.418381 
	C344.562988,137.845139 345.184082,140.494766 347.565765,143.063843 
	C353.699921,131.525070 357.247040,119.118988 362.965454,107.835945 
	C365.204895,108.537819 365.197021,109.932083 365.300018,111.253403 
	C366.012238,120.390274 366.643921,129.533585 366.101471,138.701904 
	C365.995026,140.501343 365.720032,142.394577 365.032135,144.039352 
	C359.764008,156.635605 354.379791,169.183365 349.005585,181.735031 
	C348.755524,182.319122 348.257446,182.796997 347.013031,184.512375 
	C334.002991,153.512177 321.329285,123.313438 308.025330,91.612892 
	C294.481171,123.162231 281.490387,153.422638 268.499603,183.683029 
	C268.011841,183.724289 267.524078,183.765549 267.036316,183.806808 
	C254.372925,153.588150 241.709534,123.369476 229.046143,93.150810 
	C228.604431,93.087372 228.162720,93.023933 227.721024,92.960495 
	C214.759552,123.177139 201.798096,153.393784 188.702744,183.922592 
	C174.185318,167.266205 162.807495,115.012207 172.131729,106.249680 
	C178.147934,118.251335 181.977936,130.943359 187.691132,143.277283 
	C189.703705,141.531860 190.286499,139.431000 191.087479,137.532959 
	C198.403122,120.197823 205.837509,102.909210 212.836639,85.446465 
	C214.724976,80.735069 217.422897,78.052956 222.333191,77.166222 
	C225.765182,76.546448 229.185989,75.689453 232.489227,74.575127 
	C236.847427,73.104919 239.088608,74.444855 240.806900,78.754791 
	C248.698898,98.549950 256.889648,118.225998 264.973053,137.944855 
	C265.659698,139.619919 266.016357,141.475784 268.307526,143.314590 
	C275.725616,125.656548 283.032288,108.263756 290.482025,90.517227 
z"/>
<path fill="#000000" opacity="1.000000" stroke="none" 
	d="
M316.247620,249.650284 
	C313.630402,243.504456 311.173370,237.705521 308.716339,231.906601 
	C308.262878,231.822891 307.809387,231.739166 307.355896,231.655457 
	C294.395782,261.872650 281.435669,292.089874 268.475586,322.307068 
	C267.999329,322.311066 267.523102,322.315033 267.046875,322.319031 
	C254.416290,292.217743 241.785706,262.116455 229.155121,232.015167 
	C228.642654,231.959625 228.130188,231.904083 227.617722,231.848541 
	C217.175140,256.093506 206.732544,280.338470 195.881409,305.532013 
	C181.322205,288.355499 174.649490,269.444824 173.952103,248.126633 
	C178.400803,259.111481 182.849487,270.096344 187.298187,281.081177 
	C187.769455,281.140808 188.240738,281.200439 188.712006,281.260040 
	C201.622452,250.599396 214.532883,219.938736 227.443329,189.278076 
	C228.023499,189.221558 228.603668,189.165024 229.183838,189.108505 
	C241.871933,219.973129 254.560028,250.837769 267.746124,282.913818 
	C281.215363,250.891556 294.144958,220.152161 307.074585,189.412766 
	C307.668610,189.349762 308.262634,189.286758 308.856659,189.223755 
	C321.501678,219.980286 334.146667,250.736816 347.344971,282.839142 
	C352.343506,270.924927 356.787689,260.331970 361.680756,248.669128 
	C363.455902,265.378113 350.757355,295.745239 339.338806,304.659515 
	C331.639008,286.304901 324.023407,268.151031 316.247620,249.650284 
z"/>
<path fill="#000000" opacity="1.000000" stroke="none" 
	d="
M288.824707,205.713593 
	C281.964539,221.593613 275.271393,237.130188 268.578247,252.666748 
	C268.027008,252.703659 267.475769,252.740585 266.924500,252.777512 
	C254.247925,222.559845 241.571350,192.342178 228.320633,160.755890 
	C214.800400,192.260590 201.825272,222.495071 188.894485,252.626221 
	C186.399078,251.936295 186.237747,250.462494 185.747879,249.295853 
	C180.849289,237.629456 176.070480,225.911713 171.052994,214.296967 
	C169.683105,211.125870 169.279739,207.811279 169.156647,204.567291 
	C168.740494,193.599533 168.727905,182.616348 168.579056,171.638824 
	C168.568100,170.830002 168.569580,169.972794 169.945831,169.001816 
	C175.804016,183.377319 181.605225,197.613052 187.406433,211.848770 
	C187.828384,211.932236 188.250351,212.015701 188.672302,212.099167 
	C201.654800,181.295578 214.637314,150.491974 227.619827,119.688370 
	C228.106216,119.704094 228.592606,119.719826 229.078995,119.735558 
	C241.764923,150.489288 254.450867,181.243027 267.136780,211.996765 
	C267.569244,211.981384 268.001740,211.966003 268.434204,211.950623 
	C281.305023,181.395859 294.175842,150.841095 307.046692,120.286339 
	C307.665527,120.227287 308.284363,120.168236 308.903198,120.109184 
	C321.489471,150.694702 334.075745,181.280243 346.662018,211.865768 
	C347.100616,211.909988 347.539185,211.954224 347.977783,211.998459 
	C353.625916,198.509018 359.274078,185.019592 365.376770,170.444534 
	C370.980774,201.279312 361.531006,227.386993 346.929840,253.504944 
	C333.960175,222.607285 321.303497,192.455170 308.016968,160.802582 
	C301.315277,176.501648 295.153534,190.935898 288.824707,205.713593 
M271.324036,238.843460 
	C282.742981,212.285995 294.161957,185.728531 305.606415,159.111816 
	C296.492279,156.182709 294.750732,156.907440 291.612091,164.388824 
	C284.527039,181.277008 277.452545,198.169678 270.323608,215.039337 
	C269.661072,216.607162 269.553345,218.690552 267.075104,219.321106 
	C266.630493,218.457443 266.119843,217.628006 265.757751,216.738113 
	C258.354065,198.543030 250.957779,180.344910 243.588028,162.136063 
	C242.542557,159.552979 241.518723,157.138351 237.956589,157.834610 
	C235.722931,158.271210 233.349091,157.237137 230.571030,158.563507 
	C242.808456,187.685333 255.013931,216.731140 267.734436,247.002579 
	C269.195099,243.674805 270.105957,241.599716 271.324036,238.843460 
z"/>
<path fill="#000000" opacity="1.000000" stroke="none" 
	d="
M219.913834,275.996277 
	C222.873016,269.859161 224.584915,263.556946 228.663879,256.908813 
	C239.415665,283.075562 249.778076,308.294678 260.130493,333.489441 
	C252.936172,336.831696 242.826294,333.329987 240.147903,327.026794 
	C236.383423,318.167633 232.614395,309.310364 228.373062,299.337128 
	C224.631561,307.717926 221.324005,315.126678 217.963867,322.653229 
	C213.003113,321.120178 209.583099,318.217590 206.147598,315.382782 
	C203.706161,313.368256 205.214996,311.082092 206.072891,309.011322 
	C210.591553,298.104462 215.191299,287.231140 219.913834,275.996277 
z"/>
<path fill="#000000" opacity="1.000000" stroke="none" 
	d="
M307.976929,301.092499 
	C303.203125,308.705322 300.022675,316.957397 297.019958,325.172913 
	C294.777771,331.307587 291.065826,333.578064 285.030518,334.185791 
	C274.797668,335.216248 274.762054,335.391693 278.651398,326.064697 
	C287.480652,304.891418 296.361084,283.739502 305.254547,262.593109 
	C305.868866,261.132385 306.112152,259.332062 308.329834,258.509979 
	C310.473572,260.592743 311.106140,263.584717 312.206268,266.239197 
	C318.124176,280.518921 323.787567,294.905914 329.862030,309.117676 
	C331.456146,312.847229 330.470520,314.868073 327.561523,317.062561 
	C318.427399,323.953308 318.513397,324.000946 314.106293,313.689087 
	C312.287781,309.434113 310.994446,304.927032 307.976929,301.092499 
z"/>
<path fill="#000000" opacity="1.000000" stroke="none" 
	d="
M261.023712,390.123749 
	C263.382050,385.572205 264.217468,380.687256 267.300262,376.896667 
	C269.244080,377.864105 269.514709,379.652527 270.116669,381.135529 
	C275.060455,393.315613 279.994415,405.500793 284.753082,417.753662 
	C285.467346,419.592834 287.953186,422.337952 284.556366,423.654968 
	C281.602448,424.800262 277.961975,424.867767 276.915649,420.606079 
	C275.610291,415.289459 272.453278,413.915222 267.148438,413.910400 
	C261.984711,413.905731 258.906830,415.356995 257.593262,420.353882 
	C256.913818,422.938629 255.213150,424.130127 252.455093,424.093597 
	C245.972809,424.007690 239.488129,424.030212 233.005219,424.091949 
	C229.848495,424.122009 228.597672,422.750366 228.626892,419.550903 
	C228.736389,407.562286 228.711609,395.571777 228.642212,383.582581 
	C228.626022,380.786652 229.425919,379.095367 232.543945,379.142273 
	C235.471268,379.186310 236.792465,380.706299 236.810379,383.495056 
	C236.864960,391.986938 237.031723,400.481903 236.862335,408.969818 
	C236.779984,413.096283 237.927048,415.466705 242.470825,414.835754 
	C245.085739,414.472626 247.191559,415.654663 249.651627,417.590149 
	C253.523132,408.235870 257.198334,399.355957 261.023712,390.123749 
M269.710449,402.361420 
	C269.077332,400.947449 269.070923,399.115997 267.226990,398.453979 
	C265.446136,401.329590 265.446136,401.329590 265.253448,404.609619 
	C266.870361,404.065735 269.182678,406.499115 269.710449,402.361420 
z"/>
<path fill="#000000" opacity="1.000000" stroke="none" 
	d="
M304.812561,409.984192 
	C304.812836,398.599518 304.812836,387.712311 304.812836,376.825104 
	C305.390381,376.623535 305.967926,376.421967 306.545502,376.220428 
	C314.250275,385.063507 321.955078,393.906586 330.537079,403.756439 
	C332.280548,397.975800 331.444611,393.684967 331.666718,389.503662 
	C331.772614,387.509857 331.770660,385.502655 331.678711,383.507904 
	C331.546448,380.639008 332.700745,379.109558 335.698181,379.101624 
	C338.712799,379.093628 340.329224,380.259491 340.306915,383.536530 
	C340.236603,393.865112 340.387665,404.195648 340.263824,414.523163 
	C340.217102,418.418091 341.170807,422.422058 339.236267,427.362579 
	C330.682739,417.480225 322.606384,408.149109 314.529999,398.818024 
	C314.133026,398.916473 313.736084,399.014923 313.339111,399.113403 
	C313.339111,405.493408 313.333710,411.873413 313.341583,418.253418 
	C313.345093,421.117279 313.781464,424.077057 309.321747,424.051056 
	C304.854614,424.024963 304.744934,421.187012 304.807159,417.978485 
	C304.855591,415.480408 304.813904,412.980652 304.812561,409.984192 
z"/>
<path fill="#000000" opacity="1.000000" stroke="none" 
	d="
M256.456482,89.433670 
	C254.335114,84.327423 252.357574,79.574974 250.409378,74.810524 
	C250.227783,74.366409 250.231918,73.846344 250.031815,72.664879 
	C255.441101,71.756439 260.661896,69.620491 266.169952,72.263893 
	C266.897705,72.613159 267.642181,73.548447 268.339142,72.937752 
	C272.731293,69.089172 277.599701,72.007500 282.229797,71.884422 
	C284.984650,71.811195 286.269470,73.232391 285.054657,76.062996 
	C279.749268,88.424988 274.434265,100.782845 269.114624,113.138710 
	C268.917480,113.596626 268.636017,114.018257 267.871948,115.402084 
	C262.973053,106.573326 260.253693,97.961311 256.456482,89.433670 
z"/>
<path fill="#000000" opacity="1.000000" stroke="none" 
	d="
M188.762894,419.524780 
	C189.585205,421.111267 191.102341,422.890808 188.930817,423.531372 
	C185.815933,424.450195 182.237122,425.183929 179.710480,422.104584 
	C177.395905,419.283661 175.448822,416.163788 173.280823,413.219055 
	C172.028275,411.517761 171.092484,409.507751 168.302246,408.073151 
	C168.302246,412.401154 168.248199,416.308044 168.320602,420.212555 
	C168.371735,422.969696 167.093842,424.101501 164.392731,424.076141 
	C161.857178,424.052399 160.040741,423.227600 160.148361,420.422882 
	C160.632553,407.805206 159.483917,395.172821 160.556458,382.557983 
	C160.779297,379.936981 162.184418,379.114899 164.473923,379.161682 
	C166.744400,379.208069 168.225922,380.054962 168.340988,382.673492 
	C168.461655,385.419312 167.855225,388.251373 168.929886,391.324402 
	C173.184494,389.417145 175.376297,385.817352 177.879700,382.704376 
	C181.301788,378.449005 185.248779,378.424835 190.436768,380.293640 
	C187.843475,384.821198 184.393494,388.120728 181.270187,391.685944 
	C172.975525,401.154358 173.713333,399.133423 180.303772,407.942627 
	C183.091385,411.668701 185.800308,415.453674 188.762894,419.524780 
z"/>
<path fill="#000000" opacity="1.000000" stroke="none" 
	d="
M376.611084,411.497711 
	C377.944122,415.579163 380.352509,418.904388 380.814148,422.849854 
	C374.557190,425.223724 372.368561,424.670593 370.613770,418.997009 
	C369.057129,413.964233 365.680115,414.111511 361.705322,414.073822 
	C357.525940,414.034149 353.593323,413.873810 352.440887,419.194550 
	C352.200439,420.304565 351.678864,421.454895 350.979401,422.345062 
	C348.989838,424.877106 346.019806,424.588684 343.654633,423.679047 
	C340.703613,422.544098 342.886932,420.296478 343.559174,418.664886 
	C348.820557,405.895325 354.159485,393.157715 359.489594,380.416595 
	C359.990936,379.218170 360.596100,378.063171 362.622681,376.489075 
	C367.236267,388.040588 371.849823,399.592072 376.611084,411.497711 
M359.728455,403.927582 
	C361.095367,404.860016 362.717529,405.167175 363.422211,403.510468 
	C364.219055,401.636993 363.676392,399.801605 361.469238,398.923615 
	C359.972504,400.190460 359.428436,401.631317 359.728455,403.927582 
z"/>
<path fill="#000000" opacity="1.000000" stroke="none" 
	d="
M131.922256,415.646179 
	C127.350700,425.062927 127.183075,425.171204 119.569778,422.834839 
	C125.959190,407.402130 132.312134,392.057526 138.661118,376.722443 
	C141.294235,377.630890 141.449280,379.502533 142.035995,380.944763 
	C147.110382,393.418762 152.143021,405.910400 157.056183,418.448517 
	C157.733002,420.175720 159.842056,422.763367 156.359512,423.755615 
	C153.709946,424.510468 150.726868,424.869690 149.113892,421.367554 
	C147.971161,418.886444 147.888550,415.084381 144.751663,414.568329 
	C140.629730,413.890198 136.216110,413.043457 131.922256,415.646179 
M138.366058,399.559814 
	C137.895370,401.038727 136.363266,402.297516 137.434219,404.185455 
	C138.985153,404.734863 140.623199,405.408661 141.540802,403.270782 
	C142.154083,401.841980 140.795135,400.019196 138.366058,399.559814 
z"/>
<path fill="#000000" opacity="1.000000" stroke="none" 
	d="
M214.750946,381.067535 
	C220.097794,377.783905 222.278412,378.893188 222.325470,384.605988 
	C222.391327,392.600616 222.428329,400.597900 222.296738,408.591095 
	C222.146225,417.733887 215.421616,424.808289 207.245270,424.662292 
	C199.290756,424.520233 192.853561,417.528107 192.700287,408.572937 
	C192.557785,400.246948 192.714676,391.916229 192.630951,383.588654 
	C192.602966,380.806793 193.363251,379.079041 196.520096,379.164612 
	C199.522293,379.245972 200.516449,380.864838 200.551895,383.654999 
	C200.649155,391.311920 200.871063,398.967255 201.028564,406.623505 
	C201.117310,410.938141 202.078629,414.765686 207.137100,415.502106 
	C210.725021,416.024414 213.210663,412.950928 213.984604,407.365479 
	C214.210510,405.735046 214.212570,404.065857 214.219070,402.414093 
	C214.246552,395.429718 213.598038,388.433075 214.750946,381.067535 
z"/>
<path fill="#000000" opacity="1.000000" stroke="none" 
	d="
M418.984741,394.305389 
	C416.907776,384.408295 424.548553,378.296021 430.996643,378.721924 
	C434.532806,378.955475 437.534515,380.105011 439.658661,382.941772 
	C440.949219,384.665283 443.387726,386.493561 440.677490,388.868988 
	C438.538788,390.743439 436.371094,392.805756 433.713226,389.141022 
	C432.227264,387.092163 429.887268,386.920990 428.185852,389.074585 
	C426.333527,391.419250 427.796600,393.127747 429.860107,394.337708 
	C432.439758,395.850281 435.259857,396.992340 437.705688,398.685150 
	C442.414978,401.944550 444.337219,408.049591 442.792511,413.771210 
	C441.092346,420.068787 436.908508,423.902954 431.098511,424.487762 
	C424.165619,425.185638 417.416748,419.331940 417.042694,412.472290 
	C416.871460,409.332001 419.177673,409.143066 421.192261,408.506439 
	C423.212494,407.868103 424.798340,408.083221 425.329895,410.573608 
	C425.894012,413.216614 427.206146,415.391083 430.216278,415.342957 
	C432.375671,415.308441 433.982361,413.922699 434.484436,411.747894 
	C435.255646,408.407288 433.408325,406.331757 430.672638,404.958801 
	C425.891693,402.559357 420.915100,400.434357 418.984741,394.305389 
z"/>
<path fill="#000000" opacity="1.000000" stroke="none" 
	d="
M93.625740,385.277832 
	C92.933434,383.378601 92.054779,381.903442 92.588486,380.181366 
	C98.236771,377.924164 100.109550,378.663483 102.189476,383.837891 
	C104.515640,389.624908 105.767265,395.851898 108.860847,401.336548 
	C111.920677,400.636658 112.139137,398.265015 112.869736,396.335083 
	C114.576103,391.827637 116.312920,387.326874 117.833992,382.755707 
	C118.879745,379.613007 121.019287,378.798248 124.001747,379.088104 
	C126.492828,379.330170 127.824165,380.472382 126.866493,383.026367 
	C121.442375,397.491974 115.953857,411.933411 110.464752,426.374573 
	C110.364021,426.639587 109.985275,426.798920 108.961357,427.656738 
	C103.810287,413.441559 98.774429,399.544312 93.625740,385.277832 
z"/>
<path fill="#000000" opacity="1.000000" stroke="none" 
	d="
M405.300903,399.992859 
	C405.303223,402.153595 405.260864,403.817627 405.316833,405.478302 
	C405.405975,408.123016 404.825562,411.114166 405.872345,413.321411 
	C407.203857,416.129059 410.649323,414.543060 413.158569,414.887695 
	C415.857727,415.258423 416.201691,416.983978 416.150543,419.169434 
	C416.097321,421.443420 415.938171,423.797272 413.010986,423.925354 
	C408.699799,424.114014 404.371094,424.075684 400.056091,423.937866 
	C397.504303,423.856323 396.840393,421.975128 396.843933,419.747772 
	C396.863342,407.611725 396.888916,395.475708 396.893768,383.339661 
	C396.894928,380.433105 398.329865,379.094818 401.201385,379.124542 
	C404.151337,379.155060 405.319946,380.687256 405.290344,383.534760 
	C405.235016,388.854095 405.290771,394.174622 405.300903,399.992859 
z"/>
<path fill="#000000" opacity="1.000000" stroke="none" 
	d="
M367.369812,457.499359 
	C369.297211,457.120392 370.799103,457.527496 371.939362,458.503448 
	C373.616699,459.939117 374.863373,459.658997 376.737762,458.616760 
	C381.680328,455.868530 386.237640,458.053925 386.958221,463.665070 
	C387.483337,467.753815 387.162476,471.957367 387.127075,476.108917 
	C387.112793,477.786652 386.312561,479.025604 384.439667,479.033752 
	C382.216064,479.043396 381.722626,477.511627 381.700867,475.676910 
	C381.663452,472.518585 381.684753,469.359131 381.608490,466.201935 
	C381.561462,464.254822 381.121735,462.316956 378.663086,462.433289 
	C376.506104,462.535309 375.504700,464.196136 375.410828,466.198334 
	C375.262939,469.351288 375.314697,472.513428 375.270386,475.671509 
	C375.244873,477.490509 374.817078,479.053528 372.569580,479.053345 
	C370.398224,479.053131 369.768250,477.610687 369.742432,475.743500 
	C369.698761,472.585327 369.698090,469.426605 369.656830,466.268402 
	C369.634613,464.565704 369.594727,462.729950 367.402222,462.421936 
	C365.085510,462.096466 363.908997,463.820190 363.678894,465.645996 
	C363.286346,468.760254 363.430450,471.940674 363.317322,475.092194 
	C363.251892,476.914734 363.437866,479.018524 360.714691,479.001221 
	C358.211121,478.985321 357.852020,477.129578 357.830139,475.184906 
	C357.783386,471.029327 357.855988,466.871704 357.764526,462.717499 
	C357.687866,459.235992 358.689209,457.036987 362.694397,458.270691 
	C364.327179,458.773590 365.600830,457.941833 367.369812,457.499359 
z"/>
<path fill="#000000" opacity="1.000000" stroke="none" 
	d="
M382.646088,415.921570 
	C382.651764,404.955841 382.702332,394.477509 382.630280,383.999969 
	C382.610565,381.129120 383.145508,379.119507 386.610596,379.088898 
	C390.121735,379.057892 391.247528,380.884766 391.232819,384.089081 
	C391.180054,395.564758 391.165100,407.040955 391.222137,418.516541 
	C391.238007,421.706635 390.750549,424.047821 386.731995,424.105682 
	C382.353943,424.168671 382.526642,421.356201 382.622986,418.404907 
	C382.644684,417.740143 382.638275,417.074493 382.646088,415.921570 
z"/>
<path fill="#000000" opacity="1.000000" stroke="none" 
	d="
M119.225601,462.304199 
	C116.701340,462.665314 115.704826,466.201538 112.798897,464.525818 
	C111.790916,463.944550 111.349480,463.133301 111.661888,462.061035 
	C112.534981,459.064331 115.107109,458.219818 117.710037,457.528778 
	C124.399414,455.752930 128.920517,458.667206 129.735565,465.419159 
	C130.052216,468.042358 129.894958,470.721069 129.989853,473.373169 
	C130.131729,477.337799 130.072891,480.862061 124.354599,478.182526 
	C123.496017,477.780243 121.942398,478.918274 120.692665,479.283356 
	C116.050377,480.639557 111.714828,478.464722 110.822136,474.355835 
	C109.918030,470.194458 112.375633,466.840698 117.157562,465.888641 
	C119.206047,465.480774 121.438194,465.734192 123.133156,464.152588 
	C122.688736,461.787506 120.960175,462.373993 119.225601,462.304199 
M123.580551,470.895172 
	C121.231148,468.132324 119.210678,470.149963 117.397911,471.533264 
	C116.345070,472.336700 116.632439,473.766632 117.925903,474.329498 
	C120.186569,475.313263 122.059296,474.624298 123.340500,472.493347 
	C123.500816,472.226715 123.517815,471.873962 123.580551,470.895172 
z"/>
<path fill="#000000" opacity="1.000000" stroke="none" 
	d="
M252.602219,465.214233 
	C255.200760,464.515381 255.549789,463.420258 253.265610,462.487671 
	C251.070908,461.591614 249.087677,462.480164 247.384537,464.125977 
	C246.048111,465.417389 244.545166,465.072021 243.439880,463.814789 
	C242.304459,462.523224 243.201050,461.213501 244.084122,460.259766 
	C246.977921,457.134369 250.619553,456.778107 254.619934,457.488586 
	C258.239716,458.131439 260.438324,460.273621 260.799561,463.709503 
	C261.249420,467.988739 261.148651,472.332581 261.156982,476.648773 
	C261.161407,478.954834 259.367615,479.645386 257.720642,478.918457 
	C255.613510,477.988434 253.974884,478.656403 252.065918,479.222443 
	C247.487015,480.580078 243.042877,478.391327 241.967804,474.457794 
	C240.890488,470.516083 243.704697,466.971497 248.828491,465.862061 
	C249.963699,465.616272 251.122589,465.479797 252.602219,465.214233 
M253.738022,473.555664 
	C254.601135,472.380829 255.792618,471.256378 254.033508,469.329620 
	C252.094162,470.170410 248.556061,469.158813 248.632126,472.684357 
	C248.691254,475.424988 251.235962,474.996185 253.738022,473.555664 
z"/>
<path fill="#000000" opacity="1.000000" stroke="none" 
	d="
M425.442535,463.551331 
	C426.748749,458.653931 430.308044,456.578339 435.581085,457.228790 
	C440.105438,457.786804 442.939392,460.116150 443.245697,464.852600 
	C443.405914,467.330139 443.325928,469.824371 443.322845,472.311035 
	C443.317871,476.304474 444.149414,481.055786 437.264313,478.263153 
	C436.331451,477.884735 434.825043,479.069641 433.546265,479.368134 
	C429.136078,480.397552 425.071991,478.119171 424.188232,474.191803 
	C423.425781,470.803497 425.881622,467.392975 429.954529,466.125549 
	C432.265167,465.406525 434.915527,465.834381 437.531891,463.691071 
	C434.960114,461.668060 432.699799,461.621918 430.440979,463.466187 
	C428.838104,464.774902 427.374481,465.428162 425.442535,463.551331 
M435.941162,473.726501 
	C436.912231,472.621552 438.105713,471.562225 436.686951,469.864777 
	C434.529083,469.511383 432.469635,469.675171 430.873474,471.424225 
	C430.267426,472.088348 430.311188,473.038757 430.886658,473.704834 
	C432.207123,475.233368 433.792206,474.880493 435.941162,473.726501 
z"/>
<path fill="#000000" opacity="1.000000" stroke="none" 
	d="
M205.345261,471.673431 
	C205.362152,473.617371 205.362122,475.115143 205.405670,476.611694 
	C205.445297,477.973175 204.657837,479.417999 203.540222,478.946716 
	C199.963364,477.438416 196.845886,479.736481 193.534058,479.649353 
	C190.174530,479.560944 187.277069,478.230286 186.622955,474.415802 
	C185.975220,470.638489 187.509888,468.010376 191.069763,466.455017 
	C193.620026,465.340790 196.698212,466.009918 199.836823,463.615570 
	C196.939209,461.787262 194.705704,461.547882 192.525665,463.635712 
	C190.885223,465.206787 189.100082,465.543457 187.838898,463.767181 
	C186.481293,461.855103 188.071381,460.221802 189.608154,459.225403 
	C193.335312,456.808960 197.381897,456.296448 201.473068,458.253448 
	C205.042969,459.961090 205.502335,463.230286 205.347549,466.734894 
	C205.281555,468.229279 205.343506,469.729279 205.345261,471.673431 
M197.462128,474.165436 
	C198.807205,473.167786 200.422989,472.067566 198.926758,470.252869 
	C197.806793,468.894531 196.148224,469.879791 194.763000,470.213470 
	C193.347824,470.554321 192.233780,471.486755 192.724625,473.021759 
	C193.379669,475.070282 195.140289,474.872650 197.462128,474.165436 
z"/>
<path fill="#000000" opacity="1.000000" stroke="none" 
	d="
M133.802338,472.818787 
	C133.801727,466.692596 133.782425,461.042114 133.805084,455.391754 
	C133.813278,453.350342 133.834717,451.095612 136.654190,451.049896 
	C139.697678,451.000580 139.278656,453.460205 139.320129,455.386108 
	C139.386734,458.478790 139.337982,461.573975 139.337982,464.836487 
	C144.036469,463.680267 144.859879,456.454895 152.150223,458.960754 
	C142.403946,465.827148 150.762863,471.631470 152.336533,477.947540 
	C149.424866,479.969543 147.610657,479.152557 146.082245,476.565033 
	C144.924225,474.604553 144.372040,472.227539 142.328979,470.774567 
	C140.338287,471.553741 139.610764,473.128174 139.387115,475.032532 
	C139.181076,476.786987 139.601395,479.012299 136.836487,479.003418 
	C134.025452,478.994385 133.877655,476.876038 133.819168,474.790070 
	C133.805191,474.291779 133.806152,473.793060 133.802338,472.818787 
z"/>
<path fill="#000000" opacity="1.000000" stroke="none" 
	d="
M295.805542,472.491364 
	C293.643188,470.742035 291.126526,471.180176 288.961273,470.313934 
	C286.062073,469.154144 283.973022,467.205994 284.051880,464.081177 
	C284.134460,460.805847 286.142609,458.646301 289.439209,457.724884 
	C294.858765,456.210114 298.532196,457.774536 300.753876,462.809235 
	C297.480621,467.068726 293.517242,459.353424 290.026886,463.482208 
	C291.625946,465.623596 294.142212,465.274017 296.208984,465.831787 
	C299.841797,466.812225 302.293488,468.870728 302.145569,472.762634 
	C302.000336,476.582794 299.559143,478.658417 295.841553,479.401917 
	C292.231873,480.123871 288.843536,479.803436 285.943115,477.415344 
	C284.700348,476.392151 283.119568,474.959564 284.335663,473.211670 
	C285.562744,471.447937 287.133270,472.487579 288.683655,473.371704 
	C291.159332,474.783386 293.886414,476.687653 295.805542,472.491364 
z"/>
<path fill="#000000" opacity="1.000000" stroke="none" 
	d="
M347.872620,479.097382 
	C341.756561,480.228912 338.060242,478.632568 335.852722,474.170319 
	C333.566864,469.549713 334.450226,462.897858 337.970673,459.861877 
	C341.459045,456.853516 345.397644,456.370605 349.494659,458.623962 
	C353.471191,460.811096 354.555389,464.537537 354.559692,468.731598 
	C354.564514,473.430206 352.888641,477.138184 347.872620,479.097382 
M340.483459,466.983612 
	C340.569733,470.378876 339.823364,474.550385 345.017151,474.520538 
	C347.733795,474.504913 348.622253,471.992249 348.641724,469.462158 
	C348.663300,466.660767 349.002258,463.470154 345.505524,462.492493 
	C342.661407,461.697357 341.400757,463.833893 340.483459,466.983612 
z"/>
<path fill="#000000" opacity="1.000000" stroke="none" 
	d="
M155.651505,458.853333 
	C159.052063,457.182098 160.294098,458.502075 160.311630,461.576172 
	C160.328659,464.565277 160.324234,467.554779 160.371872,470.543396 
	C160.403931,472.554016 161.069992,474.382294 163.365387,474.339478 
	C165.415924,474.301270 166.674332,472.805298 166.797119,470.727142 
	C166.973160,467.747406 166.931732,464.755432 167.069382,461.772644 
	C167.155640,459.903503 167.333054,457.933289 169.934128,457.978271 
	C172.407608,458.020996 172.873062,459.877869 172.905548,461.784821 
	C172.981888,466.266113 172.967285,470.750885 172.875458,475.231934 
	C172.845612,476.687958 172.574677,479.134918 171.025055,478.771790 
	C167.335129,477.907104 164.030823,480.135712 160.490005,479.416290 
	C156.739990,478.654419 155.326294,475.797455 155.035690,472.540405 
	C154.639999,468.105591 154.290680,463.607361 155.651505,458.853333 
z"/>
<path fill="#000000" opacity="1.000000" stroke="none" 
	d="
M193.333130,89.318344 
	C195.571655,88.334999 197.048782,86.420738 200.626587,86.869423 
	C196.602707,96.296135 192.728516,105.372177 188.854324,114.448219 
	C188.328812,114.474182 187.803284,114.500153 187.277771,114.526115 
	C185.210403,109.423225 183.036301,104.359604 181.136353,99.195122 
	C180.512314,97.498833 182.171112,96.538551 183.403778,95.720695 
	C186.584656,93.610291 189.812332,91.570419 193.333130,89.318344 
z"/>
<path fill="#000000" opacity="1.000000" stroke="none" 
	d="
M227.363098,463.640503 
	C225.395950,467.423218 226.473373,471.145416 226.195068,474.749481 
	C226.035645,476.813995 226.045990,479.010773 223.171371,478.911438 
	C220.503540,478.819214 220.711746,476.643768 220.692886,474.842529 
	C220.645859,470.351135 220.661224,465.858643 220.700211,461.367004 
	C220.711655,460.047333 220.959442,457.832245 222.320801,458.286835 
	C225.944611,459.496857 229.005341,457.049286 232.337845,457.404053 
	C235.931366,457.786560 238.131058,459.908661 238.263290,463.626495 
	C238.405121,467.614349 238.318176,471.610687 238.314087,475.603302 
	C238.312225,477.409210 237.950943,479.041107 235.666336,478.997040 
	C233.524353,478.955719 232.887833,477.462494 232.854416,475.615692 
	C232.797256,472.455505 232.870224,469.291443 232.749283,466.134338 
	C232.608047,462.447449 230.956085,461.276581 227.363098,463.640503 
z"/>
<path fill="#000000" opacity="1.000000" stroke="none" 
	d="
M420.320129,462.255371 
	C420.325592,466.874634 420.358459,471.024658 420.304901,475.173615 
	C420.286346,476.609741 420.300446,479.187683 418.704010,478.726959 
	C414.969421,477.649109 411.708435,480.131165 408.174225,479.358185 
	C404.707367,478.599915 403.169189,475.996857 402.881409,472.907501 
	C402.513519,468.957764 402.738495,464.950745 402.751862,460.968536 
	C402.757629,459.250397 403.533783,458.070740 405.391571,458.026245 
	C407.569000,457.974091 408.224548,459.388580 408.249451,461.268616 
	C408.291199,464.421753 408.299286,467.575378 408.328461,470.728729 
	C408.345032,472.521820 408.764801,474.243591 410.860931,474.368225 
	C412.989136,474.494812 414.332825,473.039459 414.530609,471.042999 
	C414.824280,468.079193 414.748688,465.079468 414.849640,462.095703 
	C414.913239,460.217041 414.994507,458.235107 417.509491,458.074707 
	C420.164825,457.905365 420.257355,459.880035 420.320129,462.255371 
z"/>
<path fill="#000000" opacity="1.000000" stroke="none" 
	d="
M327.779114,478.963013 
	C320.736908,480.431061 316.642303,477.979065 315.061096,471.699432 
	C313.458405,465.334534 316.522064,459.167725 322.133118,457.672699 
	C326.372192,456.543152 329.667877,457.972137 331.803436,461.794006 
	C332.429565,462.914551 333.125854,464.362030 331.769684,465.417511 
	C330.425049,466.463959 328.922913,466.372162 327.857178,464.889771 
	C326.745880,463.343933 325.613007,461.679871 323.453735,462.678894 
	C320.606995,463.995880 321.109711,466.824951 321.077393,469.249817 
	C321.050842,471.241241 321.192535,473.342346 323.410889,474.352386 
	C324.855103,475.010010 326.091949,474.431091 326.897705,473.255676 
	C328.119537,471.473297 329.722961,469.632538 331.648041,471.386719 
	C333.678864,473.237183 331.855011,475.369873 330.497864,477.035278 
	C329.891510,477.779419 328.931183,478.235077 327.779114,478.963013 
z"/>
<path fill="#000000" opacity="1.000000" stroke="none" 
	d="
M344.628632,91.300110 
	C355.098785,97.974083 355.107330,97.977623 350.478241,109.172157 
	C349.736481,110.965889 349.309418,112.961937 347.169067,114.799240 
	C342.626953,105.930580 339.318115,96.979149 335.394684,87.541061 
	C339.634552,87.506126 341.747559,89.873093 344.628632,91.300110 
z"/>
<path fill="#000000" opacity="1.000000" stroke="none" 
	d="
M103.552299,477.619415 
	C101.575882,479.688232 99.168274,479.873749 98.277649,477.805298 
	C95.617821,471.627869 92.770172,465.444489 91.524071,458.689056 
	C95.525467,456.834137 97.178658,458.624817 98.225761,461.744507 
	C99.067772,464.253082 100.008049,466.728607 101.360435,470.484375 
	C102.664078,466.909058 103.523811,464.376556 104.513428,461.895905 
	C105.224586,460.113190 105.663582,457.395782 108.294960,458.185699 
	C111.390877,459.115082 109.372665,461.549103 108.838661,463.183350 
	C107.288010,467.928802 105.476189,472.588959 103.552299,477.619415 
z"/>
<path fill="#000000" opacity="1.000000" stroke="none" 
	d="
M275.678833,474.726562 
	C275.668091,467.946411 275.638885,461.634460 275.674011,455.322876 
	C275.684937,453.358917 275.430664,450.933807 278.415955,451.037811 
	C281.212982,451.135284 281.170502,453.453339 281.181793,455.467896 
	C281.218170,461.945557 281.229492,468.423676 281.193604,474.901276 
	C281.183380,476.751709 281.122253,478.811401 278.568573,478.922913 
	C276.038422,479.033417 275.714142,477.164124 275.678833,474.726562 
z"/>
<path fill="#000000" opacity="1.000000" stroke="none" 
	d="
M183.218613,455.295898 
	C183.214172,462.046448 183.223801,468.330780 183.174606,474.614685 
	C183.159134,476.591461 183.317627,478.948914 180.461395,479.006470 
	C177.551132,479.065155 177.699600,476.696808 177.686752,474.719635 
	C177.644852,468.270325 177.630173,461.820312 177.683914,455.371216 
	C177.698303,453.642578 177.248215,451.419922 179.848007,451.071747 
	C182.613724,450.701324 183.128342,452.641541 183.218613,455.295898 
z"/>
<path fill="#000000" opacity="1.000000" stroke="none" 
	d="
M270.905090,473.656738 
	C270.565613,476.110260 271.201233,478.949402 268.026917,478.935822 
	C264.597321,478.921143 265.036591,475.978943 265.001984,473.767578 
	C264.937439,469.641357 265.008057,465.509094 265.170563,461.385162 
	C265.236481,459.712402 265.646454,457.980133 267.895142,457.942566 
	C270.173615,457.904480 270.600128,459.677216 270.682037,461.321320 
	C270.879028,465.276001 270.851715,469.241882 270.905090,473.656738 
z"/>
<path fill="#000000" opacity="1.000000" stroke="none" 
	d="
M217.533234,467.165161 
	C216.487656,470.792969 210.844391,472.361786 208.783432,469.876282 
	C207.259933,468.038940 207.857025,466.249542 210.227509,465.904724 
	C212.591980,465.560760 215.161926,465.034149 217.533234,467.165161 
z"/>
<path fill="#000000" opacity="1.000000" stroke="none" 
	d="
M394.216919,479.014343 
	C391.467163,477.859161 391.496765,475.919220 392.351715,474.012268 
	C393.065552,472.419983 394.723022,472.465149 396.213684,472.727844 
	C397.801331,473.007599 398.180511,474.216644 398.231598,475.637482 
	C398.322327,478.161774 397.027496,479.195831 394.216919,479.014343 
z"/>
<path fill="#000000" opacity="1.000000" stroke="none" 
	d="
M306.662842,478.711273 
	C304.767639,476.763092 304.761322,474.862732 306.313660,473.233917 
	C307.265503,472.235291 308.799408,472.280121 310.030914,472.875275 
	C311.743317,473.702820 311.362061,475.389618 311.170044,476.805176 
	C310.819489,479.389465 308.893860,479.159576 306.662842,478.711273 
z"/>
<path fill="#000000" opacity="1.000000" stroke="none" 
	d="
M265.941284,455.294952 
	C264.997009,452.662720 265.427704,451.004547 268.256165,451.005127 
	C269.887207,451.005432 270.707855,452.125977 270.508789,453.611176 
	C270.137238,456.383514 268.354492,456.543579 265.941284,455.294952 
z"/>
</svg>